<mxfile host="app.diagrams.net" modified="2024-07-22T00:07:39.516Z" agent="Mozilla/5.0 (Macintosh; Intel Mac OS X 10_15_7) AppleWebKit/537.36 (KHTML, like Gecko) Chrome/126.0.0.0 Safari/537.36" version="24.7.1" etag="3J-X-CQIeis90Zy8gfIY" type="github">
  <diagram name="PÃ¡gina-1" id="GSnGh1a0MEHf4asTCETp">
    <mxGraphModel>
      <root>
        <mxCell id="0" />
        <mxCell id="1" parent="0" />
      </root>
    </mxGraphModel>
  </diagram>
</mxfile>
